<?xml version="1.0" encoding="UTF-8" standalone="no"?>
<svg
   width="24"
   height="24"
   version="1.1"
   id="svg1"
   sodipodi:docname="as-in-title.svg"
   inkscape:version="1.4 (e7c3feb100, 2024-10-09)"
   xmlns:inkscape="http://www.inkscape.org/namespaces/inkscape"
   xmlns:sodipodi="http://sodipodi.sourceforge.net/DTD/sodipodi-0.dtd"
   xmlns="http://www.w3.org/2000/svg"
   xmlns:svg="http://www.w3.org/2000/svg">
  <sodipodi:namedview
     id="namedview1"
     pagecolor="#ffffff"
     bordercolor="#000000"
     borderopacity="0.25"
     inkscape:showpageshadow="2"
     inkscape:pageopacity="0.0"
     inkscape:pagecheckerboard="0"
     inkscape:deskcolor="#d1d1d1"
     inkscape:zoom="37.741824"
     inkscape:cx="11.989352"
     inkscape:cy="11.989352"
     inkscape:window-width="1912"
     inkscape:window-height="1012"
     inkscape:window-x="0"
     inkscape:window-y="0"
     inkscape:window-maximized="1"
     inkscape:current-layer="svg1" />
  <defs
     id="defs1">
    <style
       id="current-color-scheme"
       type="text/css">
   .ColorScheme-Text { color:#dfdfdf; } .ColorScheme-Highlight { color:#4285f4; } .ColorScheme-NeutralText { color:#ff9800; } .ColorScheme-PositiveText { color:#4caf50; } .ColorScheme-NegativeText { color:#f44336; }
  </style>
  </defs>
  <path
     id="rect2"
     style="fill:#dfdfdf;fill-opacity:1;stroke-width:3.5;stroke-linecap:round"
     d="M 6.53125 4.8925781 C 5.6837252 4.8925781 5.0019531 5.5743502 5.0019531 6.421875 L 5.0019531 17.361328 C 5.0019531 18.208853 5.6837252 18.890625 6.53125 18.890625 L 17.46875 18.890625 C 18.316275 18.890625 18.998047 18.208853 18.998047 17.361328 L 18.998047 6.421875 C 18.998047 5.5743502 18.316275 4.8925781 17.46875 4.8925781 L 6.53125 4.8925781 z M 14.824219 6.921875 C 14.9561 6.921875 15.086869 6.9449775 15.21875 6.9882812 C 15.350631 7.031585 15.462066 7.1000442 15.552734 7.1953125 C 15.643402 7.2905808 15.71074 7.4083029 15.751953 7.546875 C 15.793166 7.6854471 15.8125 7.8223654 15.8125 7.9609375 C 15.8125 8.0995096 15.793166 8.238381 15.751953 8.3769531 C 15.71074 8.5155252 15.643402 8.6332473 15.552734 8.7285156 C 15.462066 8.8237839 15.350631 8.8922431 15.21875 8.9355469 C 15.086869 8.9788507 14.9561 9.0019531 14.824219 9.0019531 C 14.692338 9.0019531 14.559615 8.9788507 14.427734 8.9355469 C 14.295854 8.8922431 14.184418 8.8237839 14.09375 8.7285156 C 14.003082 8.6332473 13.937697 8.5155252 13.896484 8.3769531 C 13.855272 8.238381 13.833984 8.0995096 13.833984 7.9609375 C 13.833984 7.8223654 13.855272 7.6854471 13.896484 7.546875 C 13.937697 7.4083029 14.003082 7.2905808 14.09375 7.1953125 C 14.184418 7.1000442 14.295854 7.031585 14.427734 6.9882812 C 14.559615 6.9449775 14.692338 6.921875 14.824219 6.921875 z M 6.828125 7.1171875 L 11.699219 7.1171875 L 11.699219 8.3652344 L 9.9550781 8.3652344 L 9.9550781 16.666016 L 8.5703125 16.666016 L 8.5703125 8.3652344 L 6.828125 8.3652344 L 6.828125 7.1171875 z M 12.771484 9.9101562 L 15.541016 9.9101562 L 15.541016 15.417969 L 16.925781 15.417969 L 16.925781 16.666016 L 12.597656 16.666016 L 12.597656 15.417969 L 14.15625 15.417969 L 14.15625 11.158203 L 12.771484 11.158203 L 12.771484 9.9101562 z " />
</svg>
