<?xml version="1.0" encoding="UTF-8" standalone="no"?>
<svg
   width="24"
   height="24"
   version="1.1"
   id="svg1"
   sodipodi:docname="camel-case.svg"
   inkscape:version="1.4 (e7c3feb100, 2024-10-09)"
   xmlns:inkscape="http://www.inkscape.org/namespaces/inkscape"
   xmlns:sodipodi="http://sodipodi.sourceforge.net/DTD/sodipodi-0.dtd"
   xmlns="http://www.w3.org/2000/svg"
   xmlns:svg="http://www.w3.org/2000/svg">
  <sodipodi:namedview
     id="namedview1"
     pagecolor="#ffffff"
     bordercolor="#000000"
     borderopacity="0.25"
     inkscape:showpageshadow="2"
     inkscape:pageopacity="0.0"
     inkscape:pagecheckerboard="0"
     inkscape:deskcolor="#d1d1d1"
     inkscape:zoom="37.741824"
     inkscape:cx="11.989352"
     inkscape:cy="11.989352"
     inkscape:window-width="1912"
     inkscape:window-height="1012"
     inkscape:window-x="0"
     inkscape:window-y="0"
     inkscape:window-maximized="1"
     inkscape:current-layer="svg1" />
  <defs
     id="defs1">
    <style
       id="current-color-scheme"
       type="text/css">
   .ColorScheme-Text { color:#dfdfdf; } .ColorScheme-Highlight { color:#4285f4; } .ColorScheme-NeutralText { color:#ff9800; } .ColorScheme-PositiveText { color:#4caf50; } .ColorScheme-NegativeText { color:#f44336; }
  </style>
  </defs>
  <path
     id="rect2"
     style="fill:#dfdfdf;fill-opacity:1;stroke-width:3.5;stroke-linecap:round"
     d="M 6.53125 4.8925781 C 5.6837252 4.8925781 5.0019531 5.5743502 5.0019531 6.421875 L 5.0019531 17.361328 C 5.0019531 18.208853 5.6837252 18.890625 6.53125 18.890625 L 17.46875 18.890625 C 18.316275 18.890625 18.998047 18.208853 18.998047 17.361328 L 18.998047 6.421875 C 18.998047 5.5743502 18.316275 4.8925781 17.46875 4.8925781 L 6.53125 4.8925781 z M 14.724609 7.0136719 C 14.938916 7.0136719 15.149405 7.0348212 15.355469 7.078125 C 15.569775 7.112768 15.771359 7.1831803 15.960938 7.2871094 C 16.150516 7.3823777 16.320384 7.5112269 16.46875 7.6757812 C 16.625358 7.8316749 16.752652 8.009787 16.851562 8.2089844 C 16.950473 8.399521 17.024763 8.6068516 17.074219 8.8320312 C 17.123674 9.0485502 17.148438 9.268961 17.148438 9.4941406 L 17.148438 9.5722656 L 15.775391 9.5722656 L 15.775391 9.5332031 C 15.775391 9.3773095 15.756057 9.2222999 15.714844 9.0664062 C 15.673631 8.9105126 15.606293 8.7716412 15.515625 8.6503906 C 15.424957 8.5204793 15.306569 8.4258597 15.158203 8.3652344 C 15.01808 8.2959483 14.872975 8.2597656 14.724609 8.2597656 C 14.609214 8.2597656 14.497778 8.277857 14.390625 8.3125 C 14.283472 8.347143 14.189847 8.4025219 14.107422 8.4804688 C 14.024996 8.5584156 13.954182 8.6499772 13.896484 8.7539062 C 13.838787 8.8578353 13.792736 8.9655352 13.759766 9.078125 C 13.726795 9.1907148 13.702032 9.3084369 13.685547 9.4296875 C 13.677304 9.5422773 13.673828 9.6599994 13.673828 9.78125 L 13.673828 14.001953 C 13.673828 14.123204 13.677304 14.245937 13.685547 14.367188 C 13.702032 14.479777 13.726795 14.592488 13.759766 14.705078 C 13.792736 14.817668 13.838787 14.925368 13.896484 15.029297 C 13.954182 15.133226 14.024996 15.224788 14.107422 15.302734 C 14.189847 15.380681 14.283472 15.43606 14.390625 15.470703 C 14.497778 15.505346 14.609214 15.523437 14.724609 15.523438 C 14.872975 15.523438 15.01808 15.492266 15.158203 15.431641 C 15.306569 15.362355 15.424957 15.267735 15.515625 15.146484 C 15.606293 15.016573 15.673631 14.87269 15.714844 14.716797 C 15.756057 14.560903 15.775391 14.405894 15.775391 14.25 L 15.775391 14.210938 L 17.148438 14.210938 L 17.148438 14.289062 C 17.148438 14.514242 17.123674 14.739664 17.074219 14.964844 C 17.024763 15.181363 16.950473 15.388693 16.851562 15.587891 C 16.752652 15.778427 16.625358 15.956539 16.46875 16.121094 C 16.320384 16.276987 16.150516 16.405837 15.960938 16.509766 C 15.771359 16.605034 15.569775 16.670435 15.355469 16.705078 C 15.149405 16.748382 14.938916 16.769531 14.724609 16.769531 C 14.50206 16.769531 14.275713 16.743371 14.044922 16.691406 C 13.822373 16.648102 13.611884 16.569621 13.414062 16.457031 C 13.224484 16.335781 13.05114 16.185782 12.894531 16.003906 C 12.746165 15.81337 12.627777 15.609097 12.537109 15.392578 C 12.446441 15.176059 12.384533 14.950637 12.351562 14.716797 C 12.318592 14.474296 12.300781 14.235794 12.300781 14.001953 L 12.300781 9.78125 C 12.300781 9.5474096 12.318592 9.3119654 12.351562 9.078125 C 12.384533 8.8356238 12.446441 8.6071439 12.537109 8.390625 C 12.627777 8.1741061 12.746165 7.9748446 12.894531 7.7929688 C 13.05114 7.6024321 13.224484 7.4504805 13.414062 7.3378906 C 13.611884 7.21664 13.822373 7.1351007 14.044922 7.0917969 C 14.275713 7.0398323 14.50206 7.0136719 14.724609 7.0136719 z M 9.2265625 9.8066406 C 9.4408688 9.8066406 9.649405 9.82779 9.8554688 9.8710938 C 10.069775 9.9057368 10.273312 9.976149 10.462891 10.080078 C 10.652469 10.175346 10.820384 10.301138 10.96875 10.457031 C 11.125358 10.612925 11.252652 10.789084 11.351562 10.988281 C 11.450473 11.187479 11.524763 11.394809 11.574219 11.611328 C 11.623674 11.827847 11.648438 12.050211 11.648438 12.275391 L 11.648438 12.365234 L 10.277344 12.365234 L 10.277344 12.326172 C 10.277344 12.161618 10.256057 12.001597 10.214844 11.845703 C 10.173631 11.68981 10.108246 11.550938 10.017578 11.429688 C 9.9269101 11.308437 9.806569 11.218828 9.6582031 11.158203 C 9.5180798 11.088917 9.3749284 11.052734 9.2265625 11.052734 C 9.0617115 11.052734 8.9042253 11.096986 8.7558594 11.183594 C 8.6074935 11.261541 8.4871524 11.374252 8.3964844 11.521484 C 8.3140589 11.668717 8.2575796 11.828738 8.2246094 12.001953 C 8.1916392 12.166507 8.1757812 12.334597 8.1757812 12.507812 L 8.1757812 14.068359 C 8.1757812 14.241575 8.1916392 14.414675 8.2246094 14.587891 C 8.2575796 14.752445 8.3140589 14.907455 8.3964844 15.054688 C 8.4871524 15.20192 8.6074935 15.319642 8.7558594 15.40625 C 8.9042253 15.484197 9.0617115 15.523437 9.2265625 15.523438 C 9.3749284 15.523438 9.5180798 15.492266 9.6582031 15.431641 C 9.806569 15.362355 9.9269101 15.267735 10.017578 15.146484 C 10.108246 15.025234 10.173631 14.886362 10.214844 14.730469 C 10.256057 14.574575 10.277344 14.414554 10.277344 14.25 L 10.277344 14.210938 L 11.648438 14.210938 L 11.648438 14.300781 C 11.648438 14.525961 11.623674 14.748325 11.574219 14.964844 C 11.524763 15.181363 11.450473 15.388693 11.351562 15.587891 C 11.252652 15.787088 11.125358 15.9652 10.96875 16.121094 C 10.820384 16.276987 10.652469 16.405837 10.462891 16.509766 C 10.273312 16.605034 10.069775 16.670435 9.8554688 16.705078 C 9.649405 16.748382 9.4408688 16.769531 9.2265625 16.769531 C 9.0040136 16.769531 8.7811426 16.748382 8.5585938 16.705078 C 8.3360449 16.661774 8.1255556 16.583293 7.9277344 16.470703 C 7.7381557 16.349453 7.5648116 16.202512 7.4082031 16.029297 C 7.2598372 15.847421 7.13602 15.653171 7.0371094 15.445312 C 6.9464413 15.228794 6.8845327 15.003372 6.8515625 14.769531 C 6.8185923 14.535691 6.8027344 14.3022 6.8027344 14.068359 L 6.8027344 12.507812 C 6.8027344 12.273972 6.8185923 12.040481 6.8515625 11.806641 C 6.8845327 11.5728 6.9464413 11.352389 7.0371094 11.144531 C 7.13602 10.928012 7.2598372 10.733762 7.4082031 10.560547 C 7.5648116 10.378671 7.7381557 10.23173 7.9277344 10.119141 C 8.1255556 9.99789 8.3360449 9.9143975 8.5585938 9.8710938 C 8.7811426 9.82779 9.0040136 9.8066406 9.2265625 9.8066406 z " />
</svg>
