<?xml version="1.0" encoding="UTF-8" standalone="no"?>
<svg
   width="24"
   height="24"
   version="1.1"
   id="svg1"
   sodipodi:docname="last-to-beginning.svg"
   inkscape:version="1.4 (e7c3feb100, 2024-10-09)"
   xmlns:inkscape="http://www.inkscape.org/namespaces/inkscape"
   xmlns:sodipodi="http://sodipodi.sourceforge.net/DTD/sodipodi-0.dtd"
   xmlns="http://www.w3.org/2000/svg"
   xmlns:svg="http://www.w3.org/2000/svg">
  <defs
     id="defs1" />
  <sodipodi:namedview
     id="namedview1"
     pagecolor="#ffffff"
     bordercolor="#000000"
     borderopacity="0.25"
     inkscape:showpageshadow="2"
     inkscape:pageopacity="0.0"
     inkscape:pagecheckerboard="0"
     inkscape:deskcolor="#d1d1d1"
     inkscape:zoom="34.427261"
     inkscape:cx="7.9878559"
     inkscape:cy="7.9733325"
     inkscape:window-width="2552"
     inkscape:window-height="1372"
     inkscape:window-x="0"
     inkscape:window-y="0"
     inkscape:window-maximized="1"
     inkscape:current-layer="svg1" />
  <path
     id="path2-3-2"
     style="fill:#dfdfdf;stroke-width:0.828086"
     d="m 15.785234,11.805789 v 1.726835 h 2.929452 c 0.158551,0 0.284693,0.267158 0.284693,0.59901 v 1.198021 a 0.28561986,0.59781229 0 0 1 -0.284693,0.59901 H 15.785234 V 17.6555 l -3.135752,-2.924856 z m 2.818085,-5.4612892 c 0.21993,0 0.396986,0.2671586 0.396986,0.5990103 v 1.1980206 a 0.39619273,0.59781229 0 0 1 -0.396986,0.5990104 h -5.557815 c -0.219931,0 -0.396986,-0.2671587 -0.396986,-0.5990104 V 6.9435101 c 0,-0.3318517 0.177055,-0.5990103 0.396986,-0.5990103 z m -7.648825,0 c 0.219931,0 0.396988,0.2671586 0.396988,0.5990103 V 8.1415307 A 0.39619273,0.59781229 0 0 1 10.954494,8.7405411 H 5.3966822 c -0.219932,0 -0.396988,-0.2671587 -0.396988,-0.5990104 V 6.9435101 c 0,-0.3318517 0.177056,-0.5990103 0.396988,-0.5990103 z" />
</svg>
