<?xml version="1.0" encoding="UTF-8" standalone="no"?>
<svg
   width="24"
   height="24"
   version="1.1"
   id="svg1"
   sodipodi:docname="lowercase.svg"
   inkscape:version="1.4 (e7c3feb100, 2024-10-09)"
   xmlns:inkscape="http://www.inkscape.org/namespaces/inkscape"
   xmlns:sodipodi="http://sodipodi.sourceforge.net/DTD/sodipodi-0.dtd"
   xmlns="http://www.w3.org/2000/svg"
   xmlns:svg="http://www.w3.org/2000/svg">
  <sodipodi:namedview
     id="namedview1"
     pagecolor="#ffffff"
     bordercolor="#000000"
     borderopacity="0.25"
     inkscape:showpageshadow="2"
     inkscape:pageopacity="0.0"
     inkscape:pagecheckerboard="0"
     inkscape:deskcolor="#d1d1d1"
     inkscape:zoom="37.741824"
     inkscape:cx="11.989352"
     inkscape:cy="11.989352"
     inkscape:window-width="1912"
     inkscape:window-height="1012"
     inkscape:window-x="0"
     inkscape:window-y="0"
     inkscape:window-maximized="1"
     inkscape:current-layer="svg1" />
  <defs
     id="defs1">
    <style
       id="current-color-scheme"
       type="text/css">
   .ColorScheme-Text { color:#dfdfdf; } .ColorScheme-Highlight { color:#4285f4; } .ColorScheme-NeutralText { color:#ff9800; } .ColorScheme-PositiveText { color:#4caf50; } .ColorScheme-NegativeText { color:#f44336; }
  </style>
  </defs>
  <path
     id="rect2"
     style="fill:#dfdfdf;fill-opacity:1;stroke-width:3.5;stroke-linecap:round"
     d="M 6.53125 4.8925781 C 5.6837252 4.8925781 5.0019531 5.5743502 5.0019531 6.421875 L 5.0019531 17.361328 C 5.0019531 18.208853 5.6837252 18.890625 6.53125 18.890625 L 17.46875 18.890625 C 18.316275 18.890625 18.998047 18.208853 18.998047 17.361328 L 18.998047 6.421875 C 18.998047 5.5743502 18.316275 4.8925781 17.46875 4.8925781 L 6.53125 4.8925781 z M 7.2714844 7.1171875 L 10.041016 7.1171875 L 10.041016 15.417969 L 11.425781 15.417969 L 11.425781 16.666016 L 7.0996094 16.666016 L 7.0996094 15.417969 L 8.65625 15.417969 L 8.65625 8.3652344 L 7.2714844 8.3652344 L 7.2714844 7.1171875 z M 14.761719 9.8066406 C 14.984268 9.8066406 15.207139 9.82779 15.429688 9.8710938 C 15.660479 9.9143975 15.874444 9.9928789 16.072266 10.105469 C 16.270087 10.218059 16.443431 10.364999 16.591797 10.546875 C 16.748405 10.72009 16.872223 10.91434 16.962891 11.130859 C 17.061801 11.338718 17.127186 11.564139 17.160156 11.806641 C 17.201369 12.040481 17.222656 12.273972 17.222656 12.507812 L 17.222656 14.068359 C 17.222656 14.3022 17.201369 14.538749 17.160156 14.78125 C 17.127186 15.01509 17.061801 15.240512 16.962891 15.457031 C 16.872223 15.664889 16.748405 15.861093 16.591797 16.042969 C 16.443431 16.216184 16.270087 16.358113 16.072266 16.470703 C 15.874444 16.583293 15.660479 16.661774 15.429688 16.705078 C 15.207139 16.748382 14.984268 16.769531 14.761719 16.769531 C 14.53917 16.769531 14.312823 16.748382 14.082031 16.705078 C 13.859482 16.661774 13.648993 16.583293 13.451172 16.470703 C 13.253351 16.358113 13.07653 16.216184 12.919922 16.042969 C 12.771556 15.861093 12.647739 15.664889 12.548828 15.457031 C 12.45816 15.240512 12.392775 15.01509 12.351562 14.78125 C 12.318592 14.538749 12.300781 14.3022 12.300781 14.068359 L 12.300781 12.507812 C 12.300781 12.273972 12.318592 12.040481 12.351562 11.806641 C 12.392775 11.564139 12.45816 11.338718 12.548828 11.130859 C 12.647739 10.91434 12.771556 10.72009 12.919922 10.546875 C 13.07653 10.364999 13.253351 10.218059 13.451172 10.105469 C 13.648993 9.9928789 13.859482 9.9143975 14.082031 9.8710938 C 14.312823 9.82779 14.53917 9.8066406 14.761719 9.8066406 z M 14.761719 11.052734 C 14.596868 11.052734 14.435905 11.091975 14.279297 11.169922 C 14.130931 11.247869 14.007114 11.36058 13.908203 11.507812 C 13.817535 11.655045 13.755626 11.815066 13.722656 11.988281 C 13.689686 12.161496 13.673828 12.334597 13.673828 12.507812 L 13.673828 14.068359 C 13.673828 14.241575 13.689686 14.414675 13.722656 14.587891 C 13.755626 14.761106 13.817535 14.921127 13.908203 15.068359 C 14.007114 15.215592 14.130931 15.328303 14.279297 15.40625 C 14.435905 15.484197 14.596868 15.523437 14.761719 15.523438 C 14.92657 15.523437 15.084056 15.484197 15.232422 15.40625 C 15.38903 15.328303 15.512848 15.215592 15.603516 15.068359 C 15.702426 14.921127 15.767811 14.761106 15.800781 14.587891 C 15.833751 14.414675 15.849609 14.241575 15.849609 14.068359 L 15.849609 12.507812 C 15.849609 12.334597 15.833751 12.161496 15.800781 11.988281 C 15.767811 11.815066 15.702426 11.655045 15.603516 11.507812 C 15.512848 11.36058 15.38903 11.247869 15.232422 11.169922 C 15.084056 11.091975 14.92657 11.052734 14.761719 11.052734 z " />
</svg>
