<?xml version="1.0" encoding="UTF-8" standalone="no"?>
<svg
   width="24"
   height="24"
   version="1.1"
   id="svg1"
   sodipodi:docname="remove-non-ascii.svg"
   inkscape:version="1.4 (e7c3feb100, 2024-10-09)"
   xmlns:inkscape="http://www.inkscape.org/namespaces/inkscape"
   xmlns:sodipodi="http://sodipodi.sourceforge.net/DTD/sodipodi-0.dtd"
   xmlns="http://www.w3.org/2000/svg"
   xmlns:svg="http://www.w3.org/2000/svg">
  <sodipodi:namedview
     id="namedview1"
     pagecolor="#ffffff"
     bordercolor="#000000"
     borderopacity="0.25"
     inkscape:showpageshadow="2"
     inkscape:pageopacity="0.0"
     inkscape:pagecheckerboard="0"
     inkscape:deskcolor="#d1d1d1"
     inkscape:zoom="37.741824"
     inkscape:cx="12.0026"
     inkscape:cy="12.015847"
     inkscape:window-width="2552"
     inkscape:window-height="1372"
     inkscape:window-x="0"
     inkscape:window-y="0"
     inkscape:window-maximized="1"
     inkscape:current-layer="svg1" />
  <defs
     id="defs1">
    <style
       id="current-color-scheme"
       type="text/css">
   .ColorScheme-Text { color:#dfdfdf; } .ColorScheme-Highlight { color:#4285f4; } .ColorScheme-NeutralText { color:#ff9800; } .ColorScheme-PositiveText { color:#4caf50; } .ColorScheme-NegativeText { color:#f44336; }
  </style>
  </defs>
  <path
     id="rect2"
     style="fill:#dfdfdf;fill-opacity:1;stroke-width:3.5;stroke-linecap:round"
     d="M 6.53125 4.8925781 C 5.6837252 4.8925781 5.0019531 5.5743502 5.0019531 6.421875 L 5.0019531 17.361328 C 5.0019531 18.208853 5.6837252 18.890625 6.53125 18.890625 L 17.46875 18.890625 C 18.316275 18.890625 18.998047 18.208853 18.998047 17.361328 L 18.998047 6.421875 C 18.998047 5.5743502 18.316275 4.8925781 17.46875 4.8925781 L 6.53125 4.8925781 z M 15.138672 7.0136719 C 15.355184 7.0136719 15.570598 7.0317644 15.787109 7.0664062 C 16.003621 7.1010481 16.207907 7.1645005 16.398438 7.2597656 C 16.597628 7.3550308 16.775752 7.4808304 16.931641 7.6367188 C 17.096189 7.7839467 17.225047 7.954001 17.320312 8.1445312 C 17.424238 8.3350615 17.502725 8.5373946 17.554688 8.7539062 C 17.60665 8.9617574 17.632812 9.1741133 17.632812 9.390625 L 17.632812 9.4433594 L 16.191406 9.4433594 L 16.191406 9.4160156 C 16.191406 9.2687877 16.168302 9.1268487 16.125 8.9882812 C 16.081698 8.8410533 16.013234 8.7102423 15.917969 8.5976562 C 15.831364 8.4850702 15.713634 8.4035253 15.566406 8.3515625 C 15.427839 8.2909392 15.2859 8.2597656 15.138672 8.2597656 C 14.991444 8.2597656 14.844494 8.2909392 14.697266 8.3515625 C 14.558698 8.4121858 14.440968 8.5037535 14.345703 8.625 C 14.259098 8.7462465 14.193693 8.8801158 14.150391 9.0273438 C 14.107088 9.1745717 14.085938 9.3265335 14.085938 9.4824219 C 14.085937 9.6902731 14.130192 9.8926061 14.216797 10.091797 C 14.312062 10.290988 14.43285 10.469112 14.580078 10.625 C 14.727306 10.772228 14.892349 10.903039 15.074219 11.015625 C 15.256089 11.119551 15.437271 11.227258 15.619141 11.339844 C 15.80101 11.443769 15.979134 11.556488 16.152344 11.677734 C 16.334214 11.798981 16.502315 11.93285 16.658203 12.080078 C 16.814092 12.218646 16.957984 12.373666 17.087891 12.546875 C 17.217798 12.711424 17.330516 12.889548 17.425781 13.080078 C 17.521046 13.270608 17.58951 13.469883 17.632812 13.677734 C 17.684775 13.885586 17.710938 14.09293 17.710938 14.300781 C 17.710938 14.525953 17.684775 14.75139 17.632812 14.976562 C 17.58085 15.193074 17.499305 15.400419 17.386719 15.599609 C 17.282793 15.7988 17.143912 15.976924 16.970703 16.132812 C 16.806154 16.288701 16.619961 16.4145 16.412109 16.509766 C 16.212919 16.605031 16.000563 16.670436 15.775391 16.705078 C 15.558879 16.74838 15.338453 16.769531 15.113281 16.769531 C 14.888109 16.769531 14.66573 16.751439 14.449219 16.716797 C 14.232707 16.682155 14.020351 16.621761 13.8125 16.535156 C 13.613309 16.439891 13.427116 16.319103 13.253906 16.171875 C 13.089357 16.024647 12.95243 15.856546 12.839844 15.666016 C 12.735918 15.475485 12.65242 15.271199 12.591797 15.054688 C 12.539834 14.838176 12.513672 14.61775 12.513672 14.392578 L 12.513672 14.353516 L 13.957031 14.353516 L 13.957031 14.378906 C 13.957031 14.526134 13.983193 14.678096 14.035156 14.833984 C 14.087119 14.981212 14.163653 15.112023 14.267578 15.224609 C 14.380164 15.328535 14.510975 15.405068 14.658203 15.457031 C 14.805431 15.500334 14.957393 15.523437 15.113281 15.523438 C 15.26917 15.523438 15.419178 15.497275 15.566406 15.445312 C 15.722295 15.384689 15.853106 15.298133 15.957031 15.185547 C 16.069617 15.0643 16.148104 14.92542 16.191406 14.769531 C 16.243369 14.613643 16.269531 14.45667 16.269531 14.300781 C 16.269531 14.08427 16.220265 13.881937 16.125 13.691406 C 16.038395 13.492216 15.922619 13.319103 15.775391 13.171875 C 15.628163 13.015987 15.458108 12.885176 15.267578 12.78125 C 15.085708 12.668664 14.904526 12.560957 14.722656 12.457031 C 14.540786 12.344445 14.362662 12.226715 14.189453 12.105469 C 14.016244 11.984222 13.853154 11.855364 13.697266 11.716797 C 13.541377 11.569569 13.397485 11.412596 13.267578 11.248047 C 13.137671 11.074838 13.024953 10.893655 12.929688 10.703125 C 12.834422 10.512595 12.760947 10.31332 12.708984 10.105469 C 12.665682 9.8976176 12.644531 9.6852617 12.644531 9.46875 C 12.644531 9.2522383 12.665682 9.034871 12.708984 8.8183594 C 12.760947 8.6018477 12.839434 8.3995146 12.943359 8.2089844 C 13.047285 8.0097936 13.176143 7.8316696 13.332031 7.6757812 C 13.48792 7.5112324 13.661032 7.3823745 13.851562 7.2871094 C 14.050753 7.1831838 14.260051 7.1127669 14.476562 7.078125 C 14.701735 7.0348227 14.92216 7.0136719 15.138672 7.0136719 z M 8.2246094 7.1171875 L 9.8886719 7.1171875 L 11.824219 16.666016 L 10.341797 16.666016 L 9.953125 14.535156 L 8.1601562 14.535156 L 7.7695312 16.666016 L 6.2890625 16.666016 L 8.2246094 7.1171875 z M 9.0566406 9.5605469 C 9.0306592 9.6817934 9.004497 9.8056399 8.9785156 9.9355469 L 8.9257812 10.300781 L 8.3808594 13.289062 L 9.7324219 13.289062 L 9.1855469 10.300781 C 9.1682259 10.179535 9.1470751 10.056793 9.1210938 9.9355469 C 9.1037728 9.8056399 9.082622 9.6817934 9.0566406 9.5605469 z " />
</svg>
