<?xml version="1.0" encoding="UTF-8" standalone="no"?>
<svg
   width="24"
   height="24"
   version="1.1"
   id="svg1"
   sodipodi:docname="www.svg"
   inkscape:version="1.4 (e7c3feb100, 2024-10-09)"
   xmlns:inkscape="http://www.inkscape.org/namespaces/inkscape"
   xmlns:sodipodi="http://sodipodi.sourceforge.net/DTD/sodipodi-0.dtd"
   xmlns="http://www.w3.org/2000/svg"
   xmlns:svg="http://www.w3.org/2000/svg">
  <defs
     id="defs1" />
  <sodipodi:namedview
     id="namedview1"
     pagecolor="#ffffff"
     bordercolor="#000000"
     borderopacity="0.25"
     inkscape:showpageshadow="2"
     inkscape:pageopacity="0.0"
     inkscape:pagecheckerboard="0"
     inkscape:deskcolor="#d1d1d1"
     inkscape:zoom="34.427261"
     inkscape:cx="7.9878559"
     inkscape:cy="7.9442858"
     inkscape:window-width="2552"
     inkscape:window-height="1372"
     inkscape:window-x="0"
     inkscape:window-y="0"
     inkscape:window-maximized="1"
     inkscape:current-layer="svg1" />
  <path
     style="fill:#dfdfdf;fill-opacity:1;stroke-width:0.5"
     d="m 12,5 c -3.866,0 -7,3.134 -7,7 0,3.866 3.134,7 7,7 3.866,0 7,-3.134 7,-7 0,-3.866 -3.134,-7 -7,-7 z m -0.701172,1.337891 c 0.08161,-0.0085 0.185238,0.0049 0.267578,0 0.0098,0.03904 -0.05926,0.177589 -0.152344,0.380859 -0.592693,1.294794 -0.626245,2.812551 -0.07617,3.623047 0.09954,0.146948 0.189453,0.286507 0.189453,0.304687 0,0.01817 -0.107136,0.03711 -0.228516,0.03711 -0.284942,0 -0.554529,-0.173105 -1.105469,-0.609375 C 9.948613,9.880414 9.631083,9.717999 9.507813,9.693359 9.31424,9.654689 9.262139,9.671429 9.01172,9.921875 8.778727,10.154826 8.707032,10.28088 8.707032,10.494141 c 0,0.808716 0.959536,1.449836 2.744141,1.828125 2.42356,0.51366 3.021041,0.975603 3.08789,2.25 0.08393,1.598058 -0.767351,2.803477 -2.630859,3.736328 -0.222422,0.111379 -0.363711,0.153463 -0.457031,0.189453 -0.04135,-0.0037 -0.07205,0.0037 -0.113281,0 -0.01586,-0.04941 -0.03906,-0.16367 -0.03906,-0.380859 0,-0.848777 -0.33377,-1.722371 -0.83789,-2.210938 C 10.325619,15.775087 9.945565,15.49773 9.621098,15.296875 9.296643,15.096032 8.969438,14.863212 8.896488,14.763672 8.775598,14.598486 8.766499,14.496563 8.859378,14.191406 9.02865,13.634074 9.229414,13.32285 9.621097,12.970703 9.826441,12.786085 10.032638,12.632606 10.078128,12.628906 10.123628,12.625206 9.817324,12.531976 9.355472,12.4375 8.893646,12.34284 8.216483,12.143995 7.867191,12.017578 7.22848,11.786469 6.367827,11.302306 6.039065,10.951172 6.025155,10.936292 6.012085,10.925292 6.000005,10.912112 6.471042,9.035796 7.792552,7.4989 9.544927,6.757815 9.91159,6.60273 10.290456,6.495675 10.689458,6.414065 c 0.198745,-0.04062 0.404165,-0.05531 0.609375,-0.07617 z m 5.71875,2.859375 c 0.143276,0.08856 0.683464,1.259169 0.837891,1.830078 0.199379,0.737047 0.184947,2.01196 0,2.74414 -0.07039,0.278672 -0.159443,0.539816 -0.189453,0.572266 -0.03001,0.03245 -0.139563,-0.153996 -0.267578,-0.380859 -0.128029,-0.226827 -0.537105,-0.709773 -0.876954,-1.06836 -0.980964,-1.035115 -1.135518,-1.574279 -0.724609,-2.40039 0.207223,-0.41658 1.109815,-1.365315 1.220703,-1.296875 z"
     id="path4" />
</svg>
