<?xml version="1.0" encoding="UTF-8" standalone="no"?>
<svg
   id="svg6"
   version="1.1"
   viewBox="0 0 32 32"
   sodipodi:docname="typobuster.svg"
   inkscape:version="1.4 (e7c3feb100, 2024-10-09)"
   xmlns:inkscape="http://www.inkscape.org/namespaces/inkscape"
   xmlns:sodipodi="http://sodipodi.sourceforge.net/DTD/sodipodi-0.dtd"
   xmlns="http://www.w3.org/2000/svg"
   xmlns:svg="http://www.w3.org/2000/svg">
  <sodipodi:namedview
     id="namedview1"
     pagecolor="#ffffff"
     bordercolor="#000000"
     borderopacity="0.25"
     inkscape:showpageshadow="2"
     inkscape:pageopacity="0.0"
     inkscape:pagecheckerboard="0"
     inkscape:deskcolor="#d1d1d1"
     inkscape:zoom="12.546875"
     inkscape:cx="16.019925"
     inkscape:cy="15.980075"
     inkscape:window-width="1187"
     inkscape:window-height="1010"
     inkscape:window-x="0"
     inkscape:window-y="0"
     inkscape:window-maximized="0"
     inkscape:current-layer="svg6" />
  <defs
     id="defs3051">
    <style
       type="text/css"
       id="current-color-scheme">.ColorScheme-Text { color: #fcfcfc; } </style>
  </defs>
  <path
     id="path1"
     style="color:#fcfcfc;stroke-linecap:round;paint-order:markers stroke fill;fill:#00aad4;fill-opacity:1"
     d="M 16 3.5 C 9.1023629 3.5 3.5 9.1023629 3.5 16 C 3.5 22.897637 9.1023629 28.5 16 28.5 L 16.001953 28.5 C 18.61801 28.48986 21.130065 27.600092 23.244141 26.072266 L 27.085938 29.914062 C 27.862766 30.690727 29.137235 30.690726 29.914062 29.914062 C 30.690727 29.137235 30.690727 27.862766 29.914062 27.085938 L 26.072266 23.244141 C 27.600092 21.130065 28.489861 18.61801 28.5 16.001953 L 28.5 16 C 28.5 9.1023629 22.897637 3.5 16 3.5 z M 16 6.5 C 21.251961 6.5 25.498923 10.746341 25.5 15.998047 C 25.4908 17.204992 25.195409 18.384142 24.740234 19.5 L 19.5 19.5 L 19.5 22.501953 L 22.837891 22.488281 C 21.058366 24.365367 18.618912 25.496554 16 25.5 C 13.381088 25.496554 10.941634 24.365368 9.1621094 22.488281 L 12.5 22.501953 L 12.5 19.5 L 7.2597656 19.5 C 6.8048341 18.384736 6.5094054 17.206288 6.5 16 L 6.5 15.998047 L 6.5 15.996094 C 6.5021531 10.745403 10.748705 6.5 16 6.5 z " />
  <path
     d="m 14.612047,22.39887 h 2.652608 v -9.760502 h 4.642062 V 10.296612 H 10.011431 v 2.341756 h 4.600616 z"
     id="text1"
     style="font-weight:bold;font-size:24px;line-height:1.1;font-family:Cantarell;-inkscape-font-specification:'Cantarell Bold';text-align:center;letter-spacing:0px;word-spacing:0.61px;text-anchor:middle;fill:#ff8000;fill-opacity:1;stroke-width:0.431739;stroke-linecap:round;stroke-linejoin:round"
     aria-label="T"
     sodipodi:nodetypes="ccccccccc" />
</svg>
