<?xml version="1.0" encoding="UTF-8" standalone="no"?>
<svg
   width="24"
   height="24"
   version="1.1"
   id="svg1"
   sodipodi:docname="as-in-sentence.svg"
   inkscape:version="1.4 (e7c3feb100, 2024-10-09)"
   xmlns:inkscape="http://www.inkscape.org/namespaces/inkscape"
   xmlns:sodipodi="http://sodipodi.sourceforge.net/DTD/sodipodi-0.dtd"
   xmlns="http://www.w3.org/2000/svg"
   xmlns:svg="http://www.w3.org/2000/svg">
  <sodipodi:namedview
     id="namedview1"
     pagecolor="#ffffff"
     bordercolor="#000000"
     borderopacity="0.25"
     inkscape:showpageshadow="2"
     inkscape:pageopacity="0.0"
     inkscape:pagecheckerboard="0"
     inkscape:deskcolor="#d1d1d1"
     inkscape:zoom="37.741824"
     inkscape:cx="11.976104"
     inkscape:cy="11.989352"
     inkscape:window-width="2552"
     inkscape:window-height="1372"
     inkscape:window-x="0"
     inkscape:window-y="0"
     inkscape:window-maximized="1"
     inkscape:current-layer="svg1"
     showgrid="false" />
  <defs
     id="defs1">
    <style
       id="current-color-scheme"
       type="text/css">
   .ColorScheme-Text { color:#dfdfdf; } .ColorScheme-Highlight { color:#4285f4; } .ColorScheme-NeutralText { color:#ff9800; } .ColorScheme-PositiveText { color:#4caf50; } .ColorScheme-NegativeText { color:#f44336; }
  </style>
  </defs>
  <path
     id="rect2"
     style="fill:#444444;fill-opacity:1;stroke-width:3.5;stroke-linecap:round"
     d="M 6.53125 4.8925781 C 5.6837252 4.8925781 5.0019531 5.5743502 5.0019531 6.421875 L 5.0019531 17.361328 C 5.0019531 18.208853 5.6837252 18.890625 6.53125 18.890625 L 17.46875 18.890625 C 18.316275 18.890625 18.998047 18.208853 18.998047 17.361328 L 18.998047 6.421875 C 18.998047 5.5743502 18.316275 4.8925781 17.46875 4.8925781 L 6.53125 4.8925781 z M 9.2753906 7.0136719 C 9.4814544 7.0136719 9.6865143 7.0348212 9.8925781 7.078125 C 10.106884 7.112768 10.304992 7.1831803 10.486328 7.2871094 C 10.675907 7.3823777 10.845775 7.5062158 10.994141 7.6621094 C 11.142507 7.818003 11.266324 7.9961151 11.365234 8.1953125 C 11.464145 8.3858491 11.533006 8.5901217 11.574219 8.8066406 C 11.623674 9.0231595 11.648438 9.2385592 11.648438 9.4550781 L 11.648438 9.5722656 L 10.277344 9.5722656 L 10.277344 9.5214844 C 10.277344 9.3655908 10.256057 9.2136391 10.214844 9.0664062 C 10.181874 8.9105126 10.119965 8.7716412 10.029297 8.6503906 C 9.9468714 8.5204793 9.8354359 8.4258597 9.6953125 8.3652344 C 9.5634317 8.2959483 9.4237565 8.2597656 9.2753906 8.2597656 C 9.1270247 8.2597656 8.9819202 8.2909372 8.8417969 8.3515625 C 8.7099161 8.4121878 8.5984806 8.5037494 8.5078125 8.625 C 8.425387 8.7462506 8.3634784 8.885122 8.3222656 9.0410156 C 8.2892954 9.1882485 8.2734375 9.338247 8.2734375 9.4941406 C 8.2734375 9.7019988 8.3140589 9.9062714 8.3964844 10.105469 C 8.4789099 10.304666 8.5903454 10.482778 8.7304688 10.638672 C 8.8705921 10.794565 9.0280783 10.923415 9.2011719 11.027344 C 9.382508 11.131273 9.5593283 11.235915 9.7324219 11.339844 C 9.913758 11.435112 10.087102 11.542812 10.251953 11.664062 C 10.425047 11.776652 10.586009 11.907455 10.734375 12.054688 C 10.890983 12.19326 11.027182 12.348269 11.142578 12.521484 C 11.266216 12.6947 11.368746 12.87587 11.451172 13.066406 C 11.54184 13.256943 11.607225 13.456204 11.648438 13.664062 C 11.697893 13.871921 11.722656 14.084262 11.722656 14.300781 C 11.722656 14.525961 11.697893 14.751383 11.648438 14.976562 C 11.598982 15.193081 11.521216 15.400412 11.414062 15.599609 C 11.315152 15.798807 11.187858 15.976919 11.03125 16.132812 C 10.874642 16.288706 10.697821 16.414497 10.5 16.509766 C 10.310421 16.605034 10.106884 16.670435 9.8925781 16.705078 C 9.6782718 16.748382 9.4643063 16.769531 9.25 16.769531 C 9.0356937 16.769531 8.8217282 16.753393 8.6074219 16.71875 C 8.4013581 16.684107 8.1997744 16.618706 8.0019531 16.523438 C 7.8123744 16.419508 7.6355541 16.293717 7.4707031 16.146484 C 7.3140947 15.990591 7.1813719 15.81749 7.0742188 15.626953 C 6.9753081 15.427756 6.9010178 15.220425 6.8515625 15.003906 C 6.8021072 14.778727 6.7773438 14.553305 6.7773438 14.328125 L 6.7773438 14.210938 L 8.1503906 14.210938 L 8.1503906 14.261719 C 8.1503906 14.426273 8.1716779 14.588247 8.2128906 14.744141 C 8.2623459 14.900034 8.3346831 15.041964 8.4335938 15.171875 C 8.5325044 15.293126 8.6528454 15.384687 8.7929688 15.445312 C 8.9413347 15.497277 9.0933915 15.523437 9.25 15.523438 C 9.3983659 15.523438 9.5469466 15.497277 9.6953125 15.445312 C 9.8436784 15.384687 9.9674956 15.293126 10.066406 15.171875 C 10.165317 15.050624 10.236131 14.911753 10.277344 14.755859 C 10.326799 14.599966 10.351563 14.444956 10.351562 14.289062 C 10.351562 14.072544 10.308988 13.86326 10.226562 13.664062 C 10.144137 13.464865 10.032701 13.291764 9.8925781 13.144531 C 9.7524548 12.988638 9.5934455 12.859788 9.4121094 12.755859 C 9.2390158 12.65193 9.0602424 12.5523 8.8789062 12.457031 C 8.6975701 12.353102 8.5207498 12.245402 8.3476562 12.132812 C 8.1828052 12.011562 8.0272722 11.875748 7.8789062 11.728516 C 7.7305403 11.581283 7.5943414 11.426273 7.4707031 11.261719 C 7.3470649 11.088504 7.2425818 10.907334 7.1601562 10.716797 C 7.0777307 10.517599 7.0123459 10.313327 6.9628906 10.105469 C 6.9216779 9.8976106 6.9003906 9.69028 6.9003906 9.4824219 C 6.9003906 9.2572422 6.9216779 9.0348783 6.9628906 8.8183594 C 7.0123459 8.6018405 7.0831601 8.399521 7.1738281 8.2089844 C 7.2727387 8.009787 7.396556 7.8316749 7.5449219 7.6757812 C 7.7015303 7.5112269 7.8694451 7.3823777 8.0507812 7.2871094 C 8.2403599 7.1831803 8.4384675 7.112768 8.6445312 7.078125 C 8.8588376 7.0348212 9.0693268 7.0136719 9.2753906 7.0136719 z M 14.761719 9.8066406 C 14.984268 9.8066406 15.207139 9.82779 15.429688 9.8710938 C 15.660479 9.9143975 15.874444 9.9928789 16.072266 10.105469 C 16.270087 10.218059 16.443431 10.364999 16.591797 10.546875 C 16.748405 10.72009 16.872223 10.91434 16.962891 11.130859 C 17.061801 11.338718 17.127186 11.564139 17.160156 11.806641 C 17.201369 12.040481 17.222656 12.273972 17.222656 12.507812 L 17.222656 13.912109 L 13.673828 13.912109 L 13.673828 14.068359 C 13.673828 14.241575 13.689686 14.414675 13.722656 14.587891 C 13.755626 14.761106 13.817535 14.921127 13.908203 15.068359 C 13.998871 15.215592 14.122688 15.328303 14.279297 15.40625 C 14.435905 15.484197 14.596868 15.523437 14.761719 15.523438 C 14.885357 15.523438 15.009174 15.510357 15.132812 15.484375 C 15.256451 15.458393 15.367886 15.40913 15.466797 15.339844 C 15.57395 15.261897 15.657146 15.162266 15.714844 15.041016 C 15.780784 14.919765 15.815976 14.795927 15.824219 14.666016 L 17.197266 14.666016 C 17.197266 14.873874 17.169026 15.076193 17.111328 15.275391 C 17.05363 15.474588 16.966958 15.660769 16.851562 15.833984 C 16.736167 16.0072 16.596492 16.15414 16.431641 16.275391 C 16.275032 16.396641 16.101688 16.496272 15.912109 16.574219 C 15.730773 16.652166 15.541571 16.704486 15.34375 16.730469 C 15.154171 16.756451 14.95954 16.769531 14.761719 16.769531 C 14.530927 16.769531 14.30458 16.748382 14.082031 16.705078 C 13.859482 16.661774 13.648993 16.583293 13.451172 16.470703 C 13.253351 16.358113 13.07653 16.216184 12.919922 16.042969 C 12.771556 15.861093 12.647739 15.661831 12.548828 15.445312 C 12.45816 15.228794 12.392775 15.003372 12.351562 14.769531 C 12.318592 14.535691 12.300781 14.3022 12.300781 14.068359 L 12.300781 12.507812 C 12.300781 12.273972 12.318592 12.040481 12.351562 11.806641 C 12.392775 11.564139 12.45816 11.338718 12.548828 11.130859 C 12.647739 10.91434 12.771556 10.72009 12.919922 10.546875 C 13.07653 10.364999 13.253351 10.218059 13.451172 10.105469 C 13.648993 9.9928789 13.859482 9.9143975 14.082031 9.8710938 C 14.312823 9.82779 14.53917 9.8066406 14.761719 9.8066406 z M 14.761719 11.052734 C 14.596868 11.052734 14.435905 11.091975 14.279297 11.169922 C 14.130931 11.247869 14.007114 11.36058 13.908203 11.507812 C 13.817535 11.655045 13.755626 11.815066 13.722656 11.988281 C 13.689686 12.161496 13.673828 12.334597 13.673828 12.507812 L 13.673828 12.664062 L 15.849609 12.664062 L 15.849609 12.507812 C 15.849609 12.334597 15.833751 12.161496 15.800781 11.988281 C 15.767811 11.815066 15.702426 11.655045 15.603516 11.507812 C 15.512848 11.36058 15.38903 11.247869 15.232422 11.169922 C 15.084056 11.091975 14.92657 11.052734 14.761719 11.052734 z " />
</svg>
