<?xml version="1.0" encoding="UTF-8" standalone="no"?>
<svg
   width="24"
   height="24"
   version="1.1"
   id="svg1"
   sodipodi:docname="file-open.svg"
   inkscape:version="1.4 (e7c3feb100, 2024-10-09)"
   xmlns:inkscape="http://www.inkscape.org/namespaces/inkscape"
   xmlns:sodipodi="http://sodipodi.sourceforge.net/DTD/sodipodi-0.dtd"
   xmlns="http://www.w3.org/2000/svg"
   xmlns:svg="http://www.w3.org/2000/svg">
  <sodipodi:namedview
     id="namedview1"
     pagecolor="#ffffff"
     bordercolor="#666666"
     borderopacity="1.0"
     inkscape:showpageshadow="2"
     inkscape:pageopacity="0.0"
     inkscape:pagecheckerboard="0"
     inkscape:deskcolor="#d1d1d1"
     inkscape:zoom="24"
     inkscape:cx="12"
     inkscape:cy="11.979167"
     inkscape:window-width="2552"
     inkscape:window-height="1372"
     inkscape:window-x="0"
     inkscape:window-y="0"
     inkscape:window-maximized="1"
     inkscape:current-layer="svg1" />
  <defs
     id="defs1">
    <style
       id="current-color-scheme"
       type="text/css">
   .ColorScheme-Text { color:#dfdfdf; } .ColorScheme-Highlight { color:#4285f4; } .ColorScheme-NeutralText { color:#ff9800; } .ColorScheme-PositiveText { color:#4caf50; } .ColorScheme-NegativeText { color:#f44336; }
  </style>
  </defs>
  <path
     style="fill:#444444;fill-opacity:1"
     class="ColorScheme-Text"
     d="m 6.0000001,5.0000003 c 0,0 -1.0000001,0 -1.0000001,1 V 15 18 c 0,1 1.0000001,1 1.0000001,1 h 2 v -2 h -1 V 7.0097659 H 15 V 9.0000001 12 12 h 2.000003 V 10.25 5.9999999 c 0,-1 -1,-1 -1,-1 z M 9.7148439,11 c 0,0 -0.7148438,-9.01e-4 -0.7148438,0.691406 v 7.617188 c 0,0 5.581e-4,0.691406 0.7148438,0.691406 H 18.285156 C 18.285156,20 19,20.000902 19,19.308594 V 13.677868 C 19,12.98556 18.285156,13.000133 18.285156,13.000133 H 14.714844 L 13.285156,11 Z"
     id="path1" />
</svg>
