<?xml version="1.0" encoding="UTF-8" standalone="no"?>
<svg
   width="24"
   height="24"
   version="1.1"
   id="svg1"
   sodipodi:docname="kebab-case.svg"
   inkscape:version="1.4 (e7c3feb100, 2024-10-09)"
   xmlns:inkscape="http://www.inkscape.org/namespaces/inkscape"
   xmlns:sodipodi="http://sodipodi.sourceforge.net/DTD/sodipodi-0.dtd"
   xmlns="http://www.w3.org/2000/svg"
   xmlns:svg="http://www.w3.org/2000/svg">
  <sodipodi:namedview
     id="namedview1"
     pagecolor="#ffffff"
     bordercolor="#000000"
     borderopacity="0.25"
     inkscape:showpageshadow="2"
     inkscape:pageopacity="0.0"
     inkscape:pagecheckerboard="0"
     inkscape:deskcolor="#d1d1d1"
     inkscape:zoom="37.741824"
     inkscape:cx="12.0026"
     inkscape:cy="12.015847"
     inkscape:window-width="2552"
     inkscape:window-height="1372"
     inkscape:window-x="0"
     inkscape:window-y="0"
     inkscape:window-maximized="1"
     inkscape:current-layer="svg1" />
  <defs
     id="defs1">
    <style
       id="current-color-scheme"
       type="text/css">
   .ColorScheme-Text { color:#dfdfdf; } .ColorScheme-Highlight { color:#4285f4; } .ColorScheme-NeutralText { color:#ff9800; } .ColorScheme-PositiveText { color:#4caf50; } .ColorScheme-NegativeText { color:#f44336; }
  </style>
  </defs>
  <path
     id="rect2"
     style="fill:#444444;fill-opacity:1;stroke-width:3.5;stroke-linecap:round"
     d="M 6.53125 4.8925781 C 5.6837252 4.8925781 5.0019531 5.5743502 5.0019531 6.421875 L 5.0019531 17.361328 C 5.0019531 18.208853 5.6837252 18.890625 6.53125 18.890625 L 17.46875 18.890625 C 18.316275 18.890625 18.998047 18.208853 18.998047 17.361328 L 18.998047 6.421875 C 18.998047 5.5743502 18.316275 4.8925781 17.46875 4.8925781 L 6.53125 4.8925781 z M 7.0996094 7.1171875 L 8.4707031 7.1171875 L 8.4707031 12.730469 L 10.240234 9.9101562 L 11.822266 9.9101562 L 9.6953125 13.001953 L 11.822266 16.666016 L 10.289062 16.666016 L 8.9414062 14.119141 L 8.4707031 14.794922 L 8.4707031 16.666016 L 7.0996094 16.666016 L 7.0996094 7.1171875 z M 14.724609 9.8066406 C 14.938916 9.8066406 15.149405 9.82779 15.355469 9.8710938 C 15.569775 9.9057368 15.771359 9.976149 15.960938 10.080078 C 16.150516 10.175346 16.320384 10.301138 16.46875 10.457031 C 16.625358 10.612925 16.752652 10.789084 16.851562 10.988281 C 16.950473 11.187479 17.024763 11.394809 17.074219 11.611328 C 17.123674 11.827847 17.148438 12.050211 17.148438 12.275391 L 17.148438 12.365234 L 15.775391 12.365234 L 15.775391 12.326172 C 15.775391 12.161618 15.756057 12.001597 15.714844 11.845703 C 15.673631 11.68981 15.606293 11.550938 15.515625 11.429688 C 15.424957 11.308437 15.306569 11.218828 15.158203 11.158203 C 15.01808 11.088917 14.872975 11.052734 14.724609 11.052734 C 14.559758 11.052734 14.404225 11.096986 14.255859 11.183594 C 14.107493 11.261541 13.987152 11.374252 13.896484 11.521484 C 13.814059 11.668717 13.755626 11.828738 13.722656 12.001953 C 13.689686 12.166507 13.673828 12.334597 13.673828 12.507812 L 13.673828 14.068359 C 13.673828 14.241575 13.689686 14.414675 13.722656 14.587891 C 13.755626 14.752445 13.814059 14.907455 13.896484 15.054688 C 13.987152 15.20192 14.107493 15.319642 14.255859 15.40625 C 14.404225 15.484197 14.559758 15.523437 14.724609 15.523438 C 14.872975 15.523438 15.01808 15.492266 15.158203 15.431641 C 15.306569 15.362355 15.424957 15.267735 15.515625 15.146484 C 15.606293 15.025234 15.673631 14.886362 15.714844 14.730469 C 15.756057 14.574575 15.775391 14.414554 15.775391 14.25 L 15.775391 14.210938 L 17.148438 14.210938 L 17.148438 14.300781 C 17.148438 14.525961 17.123674 14.748325 17.074219 14.964844 C 17.024763 15.181363 16.950473 15.388693 16.851562 15.587891 C 16.752652 15.787088 16.625358 15.9652 16.46875 16.121094 C 16.320384 16.276987 16.150516 16.405837 15.960938 16.509766 C 15.771359 16.605034 15.569775 16.670435 15.355469 16.705078 C 15.149405 16.748382 14.938916 16.769531 14.724609 16.769531 C 14.50206 16.769531 14.27919 16.748382 14.056641 16.705078 C 13.834092 16.661774 13.623602 16.583293 13.425781 16.470703 C 13.236203 16.349453 13.064812 16.202512 12.908203 16.029297 C 12.759837 15.847421 12.63602 15.653171 12.537109 15.445312 C 12.446441 15.228794 12.384533 15.003372 12.351562 14.769531 C 12.318592 14.535691 12.300781 14.3022 12.300781 14.068359 L 12.300781 12.507812 C 12.300781 12.273972 12.318592 12.040481 12.351562 11.806641 C 12.384533 11.5728 12.446441 11.352389 12.537109 11.144531 C 12.63602 10.928012 12.759837 10.733762 12.908203 10.560547 C 13.064812 10.378671 13.236203 10.23173 13.425781 10.119141 C 13.623602 9.99789 13.834092 9.9143975 14.056641 9.8710938 C 14.27919 9.82779 14.50206 9.8066406 14.724609 9.8066406 z " />
</svg>
