<?xml version="1.0" encoding="UTF-8" standalone="no"?>
<svg
   width="24"
   height="24"
   version="1.1"
   id="svg1"
   sodipodi:docname="uppercase.svg"
   inkscape:version="1.4 (e7c3feb100, 2024-10-09)"
   xmlns:inkscape="http://www.inkscape.org/namespaces/inkscape"
   xmlns:sodipodi="http://sodipodi.sourceforge.net/DTD/sodipodi-0.dtd"
   xmlns="http://www.w3.org/2000/svg"
   xmlns:svg="http://www.w3.org/2000/svg">
  <sodipodi:namedview
     id="namedview1"
     pagecolor="#ffffff"
     bordercolor="#000000"
     borderopacity="0.25"
     inkscape:showpageshadow="2"
     inkscape:pageopacity="0.0"
     inkscape:pagecheckerboard="0"
     inkscape:deskcolor="#d1d1d1"
     inkscape:zoom="37.741824"
     inkscape:cx="11.989352"
     inkscape:cy="11.989352"
     inkscape:window-width="1912"
     inkscape:window-height="1012"
     inkscape:window-x="0"
     inkscape:window-y="0"
     inkscape:window-maximized="1"
     inkscape:current-layer="svg1" />
  <defs
     id="defs1">
    <style
       id="current-color-scheme"
       type="text/css">
   .ColorScheme-Text { color:#dfdfdf; } .ColorScheme-Highlight { color:#4285f4; } .ColorScheme-NeutralText { color:#ff9800; } .ColorScheme-PositiveText { color:#4caf50; } .ColorScheme-NegativeText { color:#f44336; }
  </style>
  </defs>
  <path
     id="rect2"
     style="fill:#dfdfdf;fill-opacity:1;stroke-width:3.5;stroke-linecap:round"
     d="M 6.53125 4.8925781 C 5.6837252 4.8925781 5.0019531 5.5743502 5.0019531 6.421875 L 5.0019531 17.361328 C 5.0019531 18.208853 5.6837252 18.890625 6.53125 18.890625 L 17.46875 18.890625 C 18.316275 18.890625 18.998047 18.208853 18.998047 17.361328 L 18.998047 6.421875 C 18.998047 5.5743502 18.316275 4.8925781 17.46875 4.8925781 L 6.53125 4.8925781 z M 6.9003906 7.1171875 L 8.2734375 7.1171875 L 8.2734375 14.001953 C 8.2734375 14.114543 8.2769137 14.232265 8.2851562 14.353516 C 8.3016414 14.466105 8.3229286 14.578816 8.3476562 14.691406 C 8.3806265 14.795335 8.4212478 14.899977 8.4707031 15.003906 C 8.5201584 15.107835 8.582067 15.202455 8.65625 15.289062 C 8.7386755 15.367009 8.8342531 15.427399 8.9414062 15.470703 C 9.0485594 15.505346 9.1565187 15.523438 9.2636719 15.523438 C 9.370825 15.523438 9.4768312 15.505346 9.5839844 15.470703 C 9.6911375 15.427399 9.7812858 15.367009 9.8554688 15.289062 C 9.9378943 15.202455 10.005232 15.107835 10.054688 15.003906 C 10.104143 14.899977 10.141288 14.795335 10.166016 14.691406 C 10.198986 14.578816 10.21832 14.466105 10.226562 14.353516 C 10.243048 14.232265 10.251953 14.114543 10.251953 14.001953 L 10.251953 7.1171875 L 11.625 7.1171875 L 11.625 14.001953 C 11.625 14.235794 11.607189 14.471238 11.574219 14.705078 C 11.541249 14.938919 11.47934 15.162387 11.388672 15.378906 C 11.306246 15.595425 11.191335 15.799698 11.042969 15.990234 C 10.902845 16.17211 10.738407 16.324062 10.548828 16.445312 C 10.359249 16.566563 10.152236 16.648102 9.9296875 16.691406 C 9.7071386 16.743371 9.4862208 16.769531 9.2636719 16.769531 C 9.041123 16.769531 8.818252 16.743371 8.5957031 16.691406 C 8.3731542 16.648102 8.1661412 16.566563 7.9765625 16.445312 C 7.7869838 16.324062 7.619069 16.17211 7.4707031 15.990234 C 7.3305798 15.799698 7.2137149 15.595425 7.1230469 15.378906 C 7.0406214 15.162387 6.9841421 14.938919 6.9511719 14.705078 C 6.9182017 14.471238 6.9003906 14.235794 6.9003906 14.001953 L 6.9003906 7.1171875 z M 12.585938 7.1171875 L 14.824219 7.1171875 C 15.05501 7.1171875 15.284834 7.143348 15.515625 7.1953125 C 15.754659 7.247277 15.974054 7.3388387 16.171875 7.46875 C 16.377939 7.5900006 16.554759 7.7500214 16.703125 7.9492188 C 16.859733 8.1397554 16.983551 8.347086 17.074219 8.5722656 C 17.173129 8.7974453 17.238514 9.0359474 17.271484 9.2871094 C 17.304455 9.5296106 17.320312 9.7761818 17.320312 10.027344 C 17.320312 10.278506 17.304455 10.530088 17.271484 10.78125 C 17.238514 11.023751 17.173129 11.257242 17.074219 11.482422 C 16.983551 11.707602 16.859733 11.919943 16.703125 12.119141 C 16.554759 12.309677 16.377939 12.469698 16.171875 12.599609 C 15.974054 12.72086 15.754659 12.80741 15.515625 12.859375 C 15.284834 12.91134 15.05501 12.9375 14.824219 12.9375 L 13.958984 12.9375 L 13.958984 16.666016 L 12.585938 16.666016 L 12.585938 7.1171875 z M 13.958984 8.3652344 L 13.958984 11.689453 L 14.824219 11.689453 C 14.947857 11.689453 15.066245 11.673315 15.181641 11.638672 C 15.297036 11.595368 15.401519 11.529967 15.492188 11.443359 C 15.582856 11.356752 15.657146 11.257121 15.714844 11.144531 C 15.772542 11.031941 15.816639 10.914219 15.849609 10.792969 C 15.890822 10.663057 15.915586 10.539219 15.923828 10.417969 C 15.940313 10.288057 15.949219 10.157255 15.949219 10.027344 C 15.949219 9.8974324 15.940313 9.7716412 15.923828 9.6503906 C 15.915586 9.5204793 15.890822 9.3946881 15.849609 9.2734375 C 15.816639 9.1435262 15.772542 9.0227461 15.714844 8.9101562 C 15.657146 8.7975664 15.582856 8.6979357 15.492188 8.6113281 C 15.401519 8.5247206 15.297036 8.4643305 15.181641 8.4296875 C 15.066245 8.3863837 14.947857 8.3652344 14.824219 8.3652344 L 13.958984 8.3652344 z " />
</svg>
